<!-- <?xml version="1.0" encoding="UTF-8"?> -->
<svg width="12px" height="15px" viewBox="0 0 16 19" version="1.1" xmlns="http://www.w3.org/2000/svg" xmlns:xlink="http://www.w3.org/1999/xlink">
    <!-- Generator: Sketch 49.2 (51160) - http://www.bohemiancoding.com/sketch -->
    <title>赞</title>
    <desc>Created with Sketch.</desc>
    <defs></defs>
    <g id="效果图" stroke="none" stroke-width="1" fill="none" fill-rule="evenodd">
        <g id="新闻列表" transform="translate(-609.000000, -624.000000)" fill="#FFFFFF" fill-rule="nonzero">
            <g id="Group-3" transform="translate(475.000000, 608.000000)">
                <g id="Group-6" transform="translate(134.000000, 16.000000)">
                    <g id="赞" transform="translate(8.000000, 9.500000) rotate(-180.000000) translate(-8.000000, -9.500000) ">
                        <path d="M0,6.64707074 C0,5.73749201 0.673078097,5 1.49998975,5 C2.32835576,5 3,5.73789685 3,6.64707074 L3,17.3529293 C3,18.2625305 2.3269219,19 1.49998975,19 C0.671644238,19 0,18.2621031 0,17.3529293 L0,6.64707074 Z" id="Shape"></path>
                        <path d="M5.5514597,3.56250539 L5.54275208,3.56250539 C5.54845122,3.62765209 5.5514597,3.6937285 5.5514597,3.76041036 C5.5514597,4.75696224 4.89542249,5.59712316 4,5.85554771 L4,6.72915765 C4,6.72954686 4,6.72971982 4,6.73010901 L4,17.4166522 C4,18.2906514 4.69542276,19 5.55296392,19 L11.2352865,19 C12.9477205,19 14.5715106,17.6023841 14.8616373,15.8785591 L15.9441782,9.44337234 C16.3066565,7.28734779 14.8658323,5.54166308 12.7257717,5.54166308 L8.96988712,5.54166305 C9.24903927,5.32537951 9.43009834,4.98349453 9.43009834,4.59886315 L9.43009834,1.98227121 C9.43009834,0.884637098 8.56194278,0 7.49077902,0 C6.4219034,0 5.55148088,0.887534428 5.55148088,1.98227121 L5.55148088,3.56250539 L5.5514597,3.56250539 Z" id="Shape"></path>
                    </g>
                </g>
            </g>
        </g>
    </g>
</svg>