<!-- <?xml version="1.0" encoding="UTF-8"?> -->
<svg width="12px" height="15px" viewBox="0 0 18 21" version="1.1" xmlns="http://www.w3.org/2000/svg" xmlns:xlink="http://www.w3.org/1999/xlink">
    <!-- Generator: Sketch 49.2 (51160) - http://www.bohemiancoding.com/sketch -->
    <title>Group 5</title>
    <desc>Created with Sketch.</desc>
    <defs></defs>
    <g id="效果图" stroke="none" stroke-width="1" fill="none" fill-rule="evenodd">
        <g id="新闻列表" transform="translate(-609.000000, -363.000000)">
            <g id="Group-3" transform="translate(475.000000, 348.000000)">
                <g id="Group-5" transform="translate(134.000000, 15.000000)" fill-rule="nonzero" opacity="0.498188406" stroke="#979797">
                    <g id="赞" transform="translate(9.000000, 10.500000) rotate(-180.000000) translate(-9.000000, -10.500000) translate(1.000000, 1.000000)">
                        <path d="M-0.5,6.64707074 C-0.5,5.47172609 0.385540433,4.5 1.49998975,4.5 C2.61536817,4.5 3.5,5.47152574 3.5,6.64707074 L3.5,17.3529293 C3.5,18.528294 2.61446117,19.5 1.49998975,19.5 C0.3846275,19.5 -0.5,18.5284698 -0.5,17.3529293 L-0.5,6.64707074 Z" id="Shape"></path>
                        <path d="M5.0514664,3.06250539 L5.05148088,1.98227121 C5.05148088,0.61448319 6.14263019,-0.5 7.49077902,-0.5 C8.84138558,-0.5 9.93009834,0.611760495 9.93009834,1.98227121 L9.93009834,4.59886315 C9.93009834,4.75072823 9.90998434,4.89938808 9.87167087,5.04166306 L12.7257717,5.04166308 C15.1783539,5.04166308 16.8504797,7.06842534 16.4372502,9.52631797 L15.3547028,15.961544 C15.0243667,17.9242781 13.1937276,19.5 11.2352865,19.5 L5.55296392,19.5 C4.41718109,19.5 3.5,18.5647437 3.5,17.4166522 L3.5,6.73010901 C3.5,6.72984416 3.5,6.72984416 3.5,6.72963336 C3.5,6.72942254 3.5,6.72942254 3.5,6.72915765 L3.5,5.47944389 L3.86135549,5.37515443 C4.55819756,5.17404144 5.0514597,4.51815309 5.0514597,3.76041036 C5.0514597,3.70925131 5.04917327,3.65773451 5.04465443,3.60607977 L4.99710168,3.06250539 L5.0514664,3.06250539 Z" id="Shape"></path>
                    </g>
                </g>
                <g id="Arrows-of-Slider/Dark" stroke="#FFFFFF" stroke-opacity="0.15">
                    <rect id="Rectangle-14" x="0.5" y="0.5" width="223" height="50" rx="5"></rect>
                </g>
            </g>
        </g>
    </g>
</svg>