<?xml version="1.0" encoding="UTF-8"?>
<svg width="50px" height="50px" viewBox="0 0 50 50" version="1.1" xmlns="http://www.w3.org/2000/svg" xmlns:xlink="http://www.w3.org/1999/xlink">
    <!-- Generator: Sketch 50 (54983) - http://www.bohemiancoding.com/sketch -->
    <title>Slice Copy 9</title>
    <desc>Created with Sketch.</desc>
    <defs>
        <linearGradient x1="-22.3307292%" y1="146.158854%" x2="126.708984%" y2="50%" id="linearGradient-1">
            <stop stop-color="#4634A9" offset="0%"></stop>
            <stop stop-color="#F63669" offset="100%"></stop>
        </linearGradient>
    </defs>
    <g id="效果图" stroke="none" stroke-width="1" fill="none" fill-rule="evenodd">
        <g id="图标" transform="translate(-592.000000, -235.000000)" fill="url(#linearGradient-1)" fill-rule="nonzero">
            <g id="用户" transform="translate(598.000000, 240.000000)">
                <path d="M6.85714286,12 C6.85714286,18.627417 12.2297259,24 18.8571429,24 C25.4845599,24 30.8571429,18.627417 30.8571429,12 C30.8571429,5.372583 25.4845599,4.05812251e-16 18.8571429,0 C12.2297259,-4.05812251e-16 6.85714286,5.372583 6.85714286,12 Z" id="Shape"></path>
                <path d="M30.2927165,23.3950081 C29.3537865,22.6525085 28.0124579,22.7200084 27.1405943,23.597508 C24.9944686,25.757507 22.0435457,27.1075063 18.7572907,27.1075063 C15.4710356,27.1075063 12.5201128,25.757507 10.373987,23.597508 C9.50212348,22.7200085 8.1607949,22.5850085 7.22186489,23.3950081 C3.6002777,26.5000066 0.91762055,30.4825047 0.0457569787,35.950002 C-0.289575155,38.1775009 1.25295268,40 3.53321127,40 L34.1825694,40 C36.3957615,40 38.0053558,38.1775009 37.6700237,35.950002 C36.7310937,30.4825046 34.0484365,26.5000066 30.2927165,23.3950081 Z" id="Shape"></path>
            </g>
        </g>
    </g>
</svg>