<?xml version="1.0" encoding="UTF-8"?>
<svg width="50px" height="50px" viewBox="0 0 50 50" version="1.1" xmlns="http://www.w3.org/2000/svg" xmlns:xlink="http://www.w3.org/1999/xlink">
    <!-- Generator: Sketch 50 (54983) - http://www.bohemiancoding.com/sketch -->
    <title>Slice Copy 6</title>
    <desc>Created with Sketch.</desc>
    <defs></defs>
    <g id="效果图" stroke="none" stroke-width="1" fill="none" fill-rule="evenodd">
        <g id="图标" transform="translate(-592.000000, -81.000000)" fill-rule="nonzero" stroke="#7B7B7B" stroke-width="2">
            <g id="用户" transform="translate(598.000000, 86.000000)">
                <path d="M7.85714286,12 C7.85714286,18.0751322 12.7820106,23 18.8571429,23 C24.9322751,23 29.8571429,18.0751322 29.8571429,12 C29.8571429,5.92486775 24.9322751,1 18.8571429,1 C12.7820106,1 7.85714286,5.92486775 7.85714286,12 Z" id="Shape"></path>
                <path d="M29.6649364,24.1734983 C29.1178547,23.7467917 28.3541971,23.794852 27.8499755,24.302333 C25.4455009,26.722351 22.2151157,28.1075063 18.7572907,28.1075063 C15.2994657,28.1075063 12.0690805,26.722351 9.66460583,24.302333 C9.13362767,23.7679225 8.38562621,23.7117406 7.87275063,24.1541838 C4.10884174,27.381203 1.80983801,31.237645 1.03461457,36.0988666 C0.788772733,37.7319114 1.87493127,39 3.53321127,39 L34.1825694,39 C35.8000062,39 36.9231116,37.7060291 36.6844509,36.1192538 C35.8391953,31.1972334 33.4978635,27.3454531 29.6649364,24.1734983 Z" id="Shape"></path>
            </g>
        </g>
    </g>
</svg>