<?xml version="1.0" encoding="UTF-8"?>
<svg width="50px" height="50px" viewBox="0 0 50 50" version="1.1" xmlns="http://www.w3.org/2000/svg" xmlns:xlink="http://www.w3.org/1999/xlink">
    <!-- Generator: Sketch 50 (54983) - http://www.bohemiancoding.com/sketch -->
    <title>Slice Copy 8</title>
    <desc>Created with Sketch.</desc>
    <defs>
        <linearGradient x1="85.5496652%" y1="10.4166667%" x2="0%" y2="100%" id="linearGradient-1">
            <stop stop-color="#F63669" offset="0%"></stop>
            <stop stop-color="#4634A9" offset="100%"></stop>
        </linearGradient>
    </defs>
    <g id="效果图" stroke="none" stroke-width="1" fill="none" fill-rule="evenodd">
        <g id="图标" transform="translate(-396.000000, -235.000000)" fill="url(#linearGradient-1)" fill-rule="nonzero">
            <g id="榜单2" transform="translate(404.000000, 241.000000)">
                <path d="M22.3611083,0 L34.9999956,12.675 L34.9999956,35.1 C35.0015437,36.1331306 34.5936546,37.1245352 33.8661138,37.8559834 C33.138573,38.5874316 32.1510172,38.9989665 31.1208294,39 L3.87916618,39 C1.73519015,38.9946247 -6.72506039e-06,37.2501086 0,35.1 L0,3.90000003 C0,1.74622504 1.73930532,4.57031248e-08 3.87916618,0 L22.3611083,0 Z M26.0749967,21.49025 C26.3909689,21.1295 26.2684689,20.74925 25.8008301,20.642 L20.648053,19.46615 L17.9443033,14.909 C17.6993033,14.4956 17.29972,14.4956 17.0547201,14.909 L14.3499982,19.46615 L9.19722105,20.641025 C8.73638778,20.746325 8.60805446,21.128525 8.92402667,21.49025 L12.4036096,25.4819 L11.9252763,30.7664 C11.8815263,31.24415 12.2033318,31.4801 12.6437484,31.289975 L17.4999978,29.20055 L21.3665251,30.864875 C22.3581917,31.291925 23.0766638,30.76445 22.9784693,29.68805 L22.596386,25.4819 L26.0749967,21.49025 Z M22.3406917,12.6828 L32.252496,12.6828 L22.3611083,2.75730001 L22.3406917,12.6828 Z" id="Shape"></path>
            </g>
        </g>
    </g>
</svg>