<?xml version="1.0" encoding="UTF-8"?>
<svg width="50px" height="50px" viewBox="0 0 50 50" version="1.1" xmlns="http://www.w3.org/2000/svg" xmlns:xlink="http://www.w3.org/1999/xlink">
    <!-- Generator: Sketch 50 (54983) - http://www.bohemiancoding.com/sketch -->
    <title>Slice Copy 5</title>
    <desc>Created with Sketch.</desc>
    <defs></defs>
    <g id="效果图" stroke="none" stroke-width="1" fill="none" fill-rule="evenodd">
        <g id="图标" transform="translate(-395.000000, -81.000000)" fill-rule="nonzero" stroke="#7B7B7B" stroke-width="2">
            <g id="榜单2" transform="translate(403.000000, 87.000000)">
                <path d="M21.9460588,1 L3.8791662,1 C2.29186427,1.00000003 1,2.29824572 1,3.90000003 L1,35.1000031 C0.999994997,36.6994402 2.28964021,37.9960117 3.87916618,38 L31.1198262,38.0000005 C31.8841101,37.9992338 32.6169424,37.6938474 33.1571158,37.1507729 C33.6978369,36.6071478 34.0011482,35.8699272 33.9999956,35.1 L33.9999956,13.0883781 L21.9460588,1 Z M26.8282112,22.1480258 L23.6309304,25.8168543 L23.9743341,29.5972023 C24.141312,31.4276006 22.6602129,32.5107706 20.9711529,31.783396 L17.4999107,30.2892193 L13.040088,32.208079 C11.9017078,32.6995103 10.8166171,31.9072665 10.9293479,30.6762523 L11.3691822,25.8170784 L8.17089598,22.1481209 C7.35825064,21.2178045 7.77481307,19.9402702 8.97491824,19.6660473 L13.7091541,18.5866032 L16.1944488,14.3991634 C16.8267735,13.3322122 18.1722499,13.3322122 18.8043285,14.3987485 L21.2890426,18.5867156 L26.0243702,19.6673053 C27.2292548,19.943638 27.6412836,21.218351 26.8282112,22.1480258 Z M21.3386326,13.6828 L21.3660741,0.342179957 L34.6608446,13.6828 L21.3386326,13.6828 Z" id="Shape"></path>
            </g>
        </g>
    </g>
</svg>