<!-- <?xml version="1.0" encoding="UTF-8"?> -->
<svg width="28px" height="32px" viewBox="0 0 28 32" version="1.1" xmlns="http://www.w3.org/2000/svg" xmlns:xlink="http://www.w3.org/1999/xlink">
    <!-- Generator: Sketch 49.2 (51160) - http://www.bohemiancoding.com/sketch -->
    <title>编辑</title>
    <desc>Created with Sketch.</desc>
    <defs></defs>
    <g id="效果图" stroke="none" stroke-width="1" fill="none" fill-rule="evenodd" opacity="0.8">
        <g id="钱包地址" transform="translate(-445.000000, -642.000000)" fill="#FFFFFF" fill-rule="nonzero">
            <g id="Group-2" transform="translate(31.000000, 496.000000)">
                <g id="Group-4" transform="translate(414.000000, 146.000000)">
                    <g id="编辑">
                        <path d="M21.8076923,32 L5.19230769,32 C3.81522207,32 2.49453829,31.4556563 1.52079171,30.4867184 C0.547045132,29.5177804 4.46758016e-16,28.2036185 0,26.8333333 L0,6.16666666 C0,3.31319545 2.32467533,1 5.19230769,1 L19.8553846,1 C20.4289111,1.00000001 20.8938461,1.4626391 20.8938461,2.03333333 C20.8938461,2.60402757 20.4289111,3.06666665 19.8553846,3.06666666 L5.19230769,3.06666666 C3.47172828,3.06666666 2.07692307,4.45458394 2.07692307,6.16666666 L2.07692307,26.8333333 C2.07692307,28.5454161 3.47172828,29.9333333 5.19230769,29.9333333 L21.8076923,29.9333333 C22.6339437,29.9333333 23.426354,29.6067271 24.0106019,29.0253644 C24.5948498,28.4440016 24.9230769,27.6555045 24.9230769,26.8333333 L24.9230769,7.71666665 C24.9230769,7.14597241 25.388012,6.68333332 25.9615385,6.68333332 C26.5350649,6.68333332 27,7.14597241 27,7.71666665 L27,26.8333333 C27,29.6868045 24.6753247,32 21.8076923,32 Z" id="Shape"></path>
                        <path d="M14.3448166,12.4969339 L8.04925952,12.4969339 C7.4697695,12.4969339 7.00000002,12.0304494 7.00000002,11.4550117 C7.00000002,10.879574 7.4697695,10.4130895 8.04925952,10.4130895 L14.3448166,10.4130895 C14.9243066,10.4130895 15.3940761,10.879574 15.3940761,11.4550117 C15.3940761,12.0304494 14.9243066,12.4969339 14.3448166,12.4969339 Z M18.5418546,18.7484669 L8.04925952,18.7484669 C7.4697695,18.7484669 7.00000002,18.2819825 7.00000002,17.7065448 C7.00000002,17.131107 7.4697695,16.6646226 8.04925952,16.6646226 L18.5418546,16.6646226 C19.1213447,16.6646226 19.5911141,17.131107 19.5911141,17.7065448 C19.5911141,18.2819825 19.1213447,18.7484669 18.5418546,18.7484669 Z M18.5418546,25 L8.04925952,25 C7.46976949,25 7,24.5335155 7,23.9580778 C7,23.3826401 7.46976949,22.9161556 8.04925952,22.9161556 L18.5418546,22.9161556 C19.1213447,22.9161556 19.5911142,23.3826401 19.5911142,23.9580778 C19.5911142,24.5335155 19.1213447,25 18.5418546,25 Z M18.2900324,10.6631509 C17.8702497,10.6572952 17.494391,10.4035306 17.3345431,10.0180431 C17.1746951,9.63255564 17.2616324,9.18956064 17.5555507,8.89188316 L26.2014491,0.306444411 C26.4676027,0.0421519257 26.8555302,-0.0610660363 27.2191028,0.0356717322 C27.5826755,0.132409501 27.8666581,0.414406232 27.9640771,0.775436486 C28.0614961,1.13646674 27.9575512,1.52168143 27.6913976,1.78597392 L19.024514,10.4130895 C18.8208946,10.5866387 18.5580532,10.6761256 18.2900324,10.6631509 Z" id="Shape"></path>
                    </g>
                </g>
            </g>
        </g>
    </g>
</svg>