<?xml version="1.0" encoding="UTF-8"?>
<svg width="32px" height="19px" viewBox="0 0 32 19" version="1.1" xmlns="http://www.w3.org/2000/svg" xmlns:xlink="http://www.w3.org/1999/xlink">
    <!-- Generator: Sketch 47.1 (45422) - http://www.bohemiancoding.com/sketch -->
    <title>Group Copy</title>
    <desc>Created with Sketch.</desc>
    <defs></defs>
    <g id="Page-1" stroke="none" stroke-width="1" fill="none" fill-rule="evenodd">
        <g id="历史行情" transform="translate(-54.000000, -26.000000)" fill="#5983F0">
            <g id="Group-Copy" transform="translate(54.000000, 26.000000)">
                <g id="Group-5">
                    <path d="M2.40684646,2.19199691 L10.781686,16.4996005 L14.5904477,9.95764547 L9.86449473,2.19199691 L2.40684646,2.19199691 Z M10.7824132,19 C10.1197616,19 9.52304796,18.6563374 9.18560111,18.0800567 L0.257440889,2.82704427 C-0.0807332244,2.24904955 -0.0860664362,1.5279335 0.243380603,0.944919131 C0.572464014,0.362149623 1.18990449,0 1.85425299,0 L10.0408543,0 C10.6805973,0 11.2860381,0.34207101 11.6210608,0.892518848 L16.5385245,8.9729364 C16.8985163,9.56513306 16.9055464,10.3048586 16.5570695,10.9036665 L12.3811647,18.0763838 C12.0449299,18.6538888 11.448095,18.9992654 10.7844738,19 L10.7824132,19 Z" id="Fill-1"></path>
                    <path d="M17.4097714,9.95764547 L21.2184876,16.4997229 L29.5932271,2.19199691 L22.1356679,2.19199691 L17.4097714,9.95764547 Z M21.2177604,19 L21.215215,19 C20.5518441,18.999143 19.9551375,18.6538888 19.6189068,18.0763838 L15.443173,10.9037889 C15.0942154,10.3043688 15.1014879,9.56452091 15.4619602,8.97256911 L20.3790016,0.892518848 C20.7134142,0.342315871 21.3190902,0 21.9590679,0 L30.1458139,0 C30.8101545,0 31.4274664,0.362149623 31.7566671,0.945041562 C32.0861102,1.5279335 32.0806558,2.24904955 31.742607,2.82692184 L22.8145534,18.0800567 C22.4768681,18.6563374 21.8801616,19 21.2177604,19 L21.2177604,19 Z" id="Fill-3"></path>
                </g>
            </g>
        </g>
    </g>
</svg>