<?xml version="1.0" encoding="UTF-8"?>
<svg width="55px" height="33px" viewBox="0 0 55 33" version="1.1" xmlns="http://www.w3.org/2000/svg" xmlns:xlink="http://www.w3.org/1999/xlink">
    <!-- Generator: Sketch 47.1 (45422) - http://www.bohemiancoding.com/sketch -->
    <title>Group Copy</title>
    <desc>Created with Sketch.</desc>
    <defs></defs>
    <g id="Page-1" stroke="none" stroke-width="1" fill="none" fill-rule="evenodd">
        <g id="首页" transform="translate(-587.000000, -2354.000000)" fill="#FFFFFF">
            <g id="Group-10" transform="translate(0.000000, 2215.000000)">
                <g id="Group-6" transform="translate(587.000000, 131.000000)">
                    <g id="Group-Copy" transform="translate(0.000000, 8.000000)">
                        <g id="Group-5">
                            <path d="M4.13676736,3.80715252 L18.5310227,28.6572009 L25.0773319,17.2948579 L16.9546003,3.80715252 L4.13676736,3.80715252 Z M18.5322727,33 C17.3933403,33 16.3677387,32.4031123 15.7877519,31.4022038 L0.442476528,4.91012952 C-0.138760229,3.90624396 -0.147926687,2.65377924 0.418310412,1.64117533 C0.983922525,0.628996714 2.04514835,0 3.18699733,0 L17.2577184,0 C18.3572767,0 19.397878,0.594123333 19.9736982,1.55016431 L28.425589,15.5845737 C29.0443249,16.6131258 29.0564079,17.8979122 28.4574632,18.937947 L21.2801268,31.3958245 C20.7022233,32.3988595 19.6764133,32.9987241 18.5358143,33 L18.5322727,33 Z" id="Fill-1"></path>
                            <path d="M29.9230446,17.2948579 L36.4692756,28.6574135 L50.863359,3.80715252 L38.0456792,3.80715252 L29.9230446,17.2948579 Z M36.4680256,33 L36.4636508,33 C35.323482,32.9985115 34.2978926,32.3988595 33.719996,31.3958245 L26.5429536,18.9381597 C25.9431828,17.8970617 25.9556824,16.6120626 26.5752442,15.5839358 L35.026409,1.55016431 C35.6011807,0.594548618 36.6421862,0 37.742148,0 L51.8131177,0 C52.954953,0 54.0159579,0.628996714 54.5817716,1.64138798 C55.1480019,2.65377924 55.1386272,3.90624396 54.5576057,4.90991688 L39.2125136,31.4022038 C38.6321171,32.4031123 37.6065277,33 36.4680256,33 L36.4680256,33 Z" id="Fill-3"></path>
                        </g>
                    </g>
                </g>
            </g>
        </g>
    </g>
</svg>