<?xml version="1.0" encoding="UTF-8"?>
<svg width="50px" height="50px" viewBox="0 0 50 50" version="1.1" xmlns="http://www.w3.org/2000/svg" xmlns:xlink="http://www.w3.org/1999/xlink">
    <!-- Generator: Sketch 50 (54983) - http://www.bohemiancoding.com/sketch -->
    <title>Slice</title>
    <desc>Created with Sketch.</desc>
    <defs></defs>
    <g id="效果图" stroke="none" stroke-width="1" fill="none" fill-rule="evenodd" opacity="0.721976902">
        <g id="图标" transform="translate(-65.000000, -76.000000)" fill="#FFFFFF" fill-rule="nonzero">
            <g id="足球" transform="translate(69.000000, 80.000000)">
                <path d="M20.5,41 C31.8207589,41 41,31.8207589 41,20.5 C41,9.17924107 31.8207589,0 20.5,0 C9.17924107,0 0,9.17924107 0,20.5 C0,31.8207589 9.17924107,41 20.5,41 Z M20.1104146,13.2618456 C20.601851,12.9172083 21.3946398,12.9082567 21.8953485,13.2618456 L27.3845999,17.1155178 C27.8760362,17.4601551 28.1263906,18.1852363 27.9363067,18.7536641 L25.8361117,24.988467 C25.6460279,25.5479432 25.0108696,26 24.394256,26 L17.6068709,26 C16.9995298,26 16.3550991,25.5568948 16.1650152,24.988467 L14.0648203,18.7536641 C13.8747364,18.1941879 14.1158184,17.4646309 14.6165271,17.1155178 L20.1104146,13.2618456 Z M6.40122838,9.00194351 C8.3073452,6.82974864 10.7236149,5.10196942 13.473803,4 L13.0285786,4.80720394 C12.7271246,5.29696813 12.8662572,5.93638248 13.3485836,6.23568282 L19.4565054,9.67310184 C20.0501379,9.97693703 21.0147907,9.97240218 21.6037854,9.67310184 L27.7024317,6.24021767 C28.1847581,5.93638248 28.3192529,5.29696813 28.0177989,4.81173879 L27.5679368,4 C30.3830534,5.12917854 32.8503384,6.911376 34.7750063,9.15159368 L34.2741289,9.06089661 C33.7036851,8.92938585 33.1286037,9.25589531 32.9848333,9.80007774 L31.5332163,16.543405 C31.4219103,17.1873542 31.7187265,18.0852552 32.1964151,18.5387406 L37.4231637,23.1506867 C37.8683881,23.5089401 38.5315869,23.4363825 38.9118827,23.0010365 L39,22.9103395 C38.6568062,25.83532 37.6086739,28.5471625 36.0179243,30.8826121 L35.7628478,29.2591345 C35.702557,28.6922778 35.1970419,28.2614667 34.6265981,28.3068152 L27.6328654,29.1593677 C26.9743043,29.2636693 26.2044372,29.8350609 25.9215342,30.420057 L23.1620707,36.7507126 C22.9626473,37.2767556 23.2455503,37.8662866 23.7881675,38.0794247 L24.7806468,38.5238404 C23.4171472,38.8367453 21.9933567,39 20.5278265,39 C18.955628,39 17.429807,38.8095361 15.9735523,38.4512827 L16.9057408,38.0340762 C17.448358,37.8209381 17.731261,37.2314071 17.5318376,36.7053641 L14.772374,30.3747085 C14.489471,29.7897124 13.7196039,29.2183208 13.0610429,29.1140192 L6.06267235,28.2614667 C5.49222863,28.2161182 4.98671346,28.6469293 4.92642266,29.213786 L4.73627476,30.4245919 C3.22436701,28.0483286 2.25507646,25.309277 2,22.366157 L2.44058661,22.8196424 C2.82088243,23.2504535 3.48408122,23.3230111 3.92930559,22.9692926 L9.15605415,18.3573465 C9.62910504,17.9038611 9.93055904,17.0059601 9.81925295,16.3620109 L8.36299825,9.62321845 C8.21922788,9.07903602 7.63950865,8.75252656 7.07370268,8.88403732 L6.40122838,9.00194351 Z" id="Shape"></path>
            </g>
        </g>
    </g>
</svg>