<?xml version="1.0" encoding="UTF-8"?>
<svg width="50px" height="50px" viewBox="0 0 50 50" version="1.1" xmlns="http://www.w3.org/2000/svg" xmlns:xlink="http://www.w3.org/1999/xlink">
    <!-- Generator: Sketch 50 (54983) - http://www.bohemiancoding.com/sketch -->
    <title>Slice Copy 3</title>
    <desc>Created with Sketch.</desc>
    <defs></defs>
    <g id="效果图" stroke="none" stroke-width="1" fill="none" fill-rule="evenodd">
        <g id="图标" transform="translate(-65.000000, -523.000000)" fill-rule="nonzero">
            <g id="删除" transform="translate(77.000000, 532.000000)">
                <path d="M19.9537037,32.4074074 L5.0462963,32.4074074 C3.28205335,32.4074074 1.85185185,31.1637539 1.85185185,29.6296296 L1.85185185,11.1111111 C1.85185185,10.5997363 2.32858568,10.1851852 2.91666667,10.1851852 L22.0833333,10.1851852 C22.6714143,10.1851852 23.1481481,10.5997363 23.1481481,11.1111111 L23.1481481,29.6296296 C23.1481481,31.1637539 21.7179467,32.4074074 19.9537037,32.4074074 Z M3.7037037,12.037037 L3.7037037,29.6296296 C3.7037037,30.1410044 4.17007376,30.5555556 4.74537037,30.5555556 L19.3287037,30.5555556 C19.9040003,30.5555556 20.3703704,30.1410044 20.3703704,29.6296296 L20.3703704,12.037037 L3.7037037,12.037037 Z" id="Shape" fill="#FCFCFC"></path>
                <path d="M23.9583333,8.5016835 L1.04166667,8.5016835 C0.466370052,8.5016835 0,8.04944588 0,7.49158249 C0,6.93371911 0.466370052,6.48148148 1.04166667,6.48148148 L23.9583333,6.48148148 C24.5336299,6.48148148 25,6.93371911 25,7.49158249 C25,8.04944588 24.5336299,8.5016835 23.9583333,8.5016835 Z M8.33333333,25.9259259 C7.75803672,25.9259259 7.29166667,25.4736883 7.29166667,24.9158249 L7.29166667,16.8350168 C7.29166667,16.2771535 7.75803672,15.8249158 8.33333333,15.8249158 C8.90862995,15.8249158 9.375,16.2771535 9.375,16.8350168 L9.375,24.9158249 C9.375,25.4736883 8.90862995,25.9259259 8.33333333,25.9259259 Z M12.5,25.9259259 C11.9247034,25.9259259 11.4583333,25.4736883 11.4583333,24.9158249 L11.4583333,16.8350168 C11.4583333,16.2771535 11.9247034,15.8249158 12.5,15.8249158 C13.0752966,15.8249158 13.5416667,16.2771535 13.5416667,16.8350168 L13.5416667,24.9158249 C13.5416667,25.4736883 13.0752966,25.9259259 12.5,25.9259259 Z M16.6666667,25.9259259 C16.0913701,25.9259259 15.625,25.4736883 15.625,24.9158249 L15.625,16.8350168 C15.625,16.2771535 16.0913701,15.8249158 16.6666667,15.8249158 C17.2419633,15.8249158 17.7083333,16.2771535 17.7083333,16.8350168 L17.7083333,24.9158249 C17.7083333,25.4736883 17.2419633,25.9259259 16.6666667,25.9259259 Z" id="Shape" fill="#FFFFFF" opacity="0.797497736"></path>
                <path d="M19.2838903,5.55498973 L6.63483892,5.55498973 C6.31041147,5.5565246 6.00325294,5.42676385 5.80210971,5.20319885 C5.5913062,4.98251262 5.50948302,4.68821974 5.58075131,4.40704056 L6.63483892,0.703978729 C6.75375638,0.280734239 7.19277048,-0.0122986193 7.68892654,0.000396980865 L18.2298027,0.000396980865 C18.7259588,-0.0122986193 19.1649729,0.280734239 19.2838903,0.703978729 L20.3379779,4.40704056 C20.4179789,4.68392269 20.3479592,4.97773515 20.1482422,5.20319885 C19.9403352,5.43464219 19.6193496,5.56528321 19.2838903,5.55498973 Z M7.98407107,3.70345881 L17.9346582,3.70345881 L17.4076144,1.8519279 L8.51111488,1.8519279 L7.98407107,3.70345881 Z" id="Shape" fill="#FFFFFF" opacity="0.797497736"></path>
            </g>
        </g>
    </g>
</svg>