<!-- <?xml version="1.0" encoding="UTF-8"?> -->
<svg width="300px" height="580px" viewBox="0 0 600 1159" version="1.1" xmlns="http://www.w3.org/2000/svg" xmlns:xlink="http://www.w3.org/1999/xlink">
    <!-- Generator: Sketch 49.2 (51160) - http://www.bohemiancoding.com/sketch -->
    <title>Combined Shape</title>
    <desc>Created with Sketch.</desc>
    <defs></defs>
    <g id="效果图" stroke="none" stroke-width="1" fill="none" fill-rule="evenodd">
        <g id="我的奖励" transform="translate(-75.000000, -319.000000)" fill="#383F45">
            <g id="Group-2" transform="translate(75.000000, 319.000000)">
                <path d="M600,357.906 L600,1135 C600,1148.25483 589.254834,1159 576,1159 L24,1159 C10.745166,1159 1.623249e-15,1148.25483 0,1135 L0,357.97661 C11.1336336,357.454657 20,348.262754 20,337 C20,325.737246 11.1336336,316.545343 1.49324997e-14,316.02339 L0,24 C-1.623249e-15,10.745166 10.745166,2.4348735e-15 24,0 L576,-3.55271368e-15 C589.254834,-5.98758718e-15 600,10.745166 600,24 L600,316.094 C589.340135,317.101119 581,326.076588 581,337 C581,347.923412 589.340135,356.898881 600,357.906 Z" id="Combined-Shape"></path>
            </g>
        </g>
    </g>
</svg>